<svg width="24" height="22" viewBox="0 0 24 22" fill="none" xmlns="http://www.w3.org/2000/svg">
<path d="M8.4375 3.3125H8.25C8.35313 3.3125 8.4375 3.22812 8.4375 3.125V3.3125H15.5625V3.125C15.5625 3.22812 15.6469 3.3125 15.75 3.3125H15.5625V5H17.25V3.125C17.25 2.29766 16.5773 1.625 15.75 1.625H8.25C7.42266 1.625 6.75 2.29766 6.75 3.125V5H8.4375V3.3125ZM20.25 5H3.75C3.33516 5 3 5.33516 3 5.75V6.5C3 6.60313 3.08437 6.6875 3.1875 6.6875H4.60312L5.18203 18.9453C5.21953 19.7445 5.88047 20.375 6.67969 20.375H17.3203C18.1219 20.375 18.7805 19.7469 18.818 18.9453L19.3969 6.6875H20.8125C20.9156 6.6875 21 6.60313 21 6.5V5.75C21 5.33516 20.6648 5 20.25 5ZM17.1398 18.6875H6.86016L6.29297 6.6875H17.707L17.1398 18.6875Z" fill="#B30000"/>
</svg>
