<svg width="18" height="14" viewBox="0 0 18 14" fill="none" xmlns="http://www.w3.org/2000/svg">
<path d="M0.137784 14V0.909091H2.39418L7.64844 9.91548H7.7571V0.909091H10.0391V14H7.81463L2.54119 5.02557H2.43253V14H0.137784ZM11.7905 10.1776V8.70099H17.4411V10.1776H11.7905ZM14.6094 7.63991C13.9659 7.63991 13.4077 7.50142 12.9347 7.22443C12.4659 6.94744 12.1037 6.57031 11.848 6.09304C11.5923 5.61577 11.4645 5.07457 11.4645 4.46946V3.90696C11.4645 3.30611 11.5923 2.76704 11.848 2.28977C12.1037 1.80824 12.4659 1.42898 12.9347 1.15199C13.4034 0.875 13.9574 0.736505 14.5966 0.736505C15.2443 0.736505 15.8004 0.875 16.2649 1.15199C16.7337 1.42898 17.0938 1.80824 17.3452 2.28977C17.6009 2.76704 17.7287 3.30611 17.7287 3.90696V4.46946C17.7287 5.07031 17.603 5.60937 17.3516 6.08665C17.1044 6.56392 16.7464 6.94318 16.2777 7.22443C15.8132 7.50142 15.2571 7.63991 14.6094 7.63991ZM14.6094 6.05469C15.0142 6.05469 15.3274 5.91193 15.549 5.62642C15.7749 5.33665 15.8878 4.95099 15.8878 4.46946V3.90696C15.8878 3.42969 15.777 3.05043 15.5554 2.76918C15.3338 2.48793 15.0142 2.3473 14.5966 2.3473C14.1832 2.3473 13.8658 2.48793 13.6442 2.76918C13.4268 3.05043 13.3182 3.42969 13.3182 3.90696V4.46946C13.3182 4.95099 13.429 5.33665 13.6506 5.62642C13.8722 5.91193 14.1918 6.05469 14.6094 6.05469Z" fill="white"/>
</svg>
